<?xml version="1.0" encoding="iso-8859-1"?>
<!-- Uploaded to: SVG Repo, www.svgrepo.com, Generator: SVG Repo Mixer Tools -->
<svg fill="red" height="20px" width="20px" version="1.1" id="Layer_1" xmlns="http://www.w3.org/2000/svg" xmlns:xlink="http://www.w3.org/1999/xlink" 
	 viewBox="0 0 512 512" xml:space="preserve">
<g>
	<g>
		<path d="M503.467,102.4H8.533C3.814,102.4,0,106.223,0,110.933v290.133c0,4.71,3.814,8.533,8.533,8.533h494.933
			c4.719,0,8.533-3.823,8.533-8.533V110.933C512,106.223,508.186,102.4,503.467,102.4z M494.933,392.533H17.067V119.467h477.867
			V392.533z"/>
	</g>
</g>
<g>
	<g>
		<path d="M469.333,187.733c-24.721,0-42.667-17.946-42.667-42.667c0-4.71-3.814-8.533-8.533-8.533H93.867
			c-4.719,0-8.533,3.823-8.533,8.533c0,24.721-17.946,42.667-42.667,42.667c-4.719,0-8.533,3.823-8.533,8.533v119.467
			c0,4.71,3.814,8.533,8.533,8.533c24.721,0,42.667,17.946,42.667,42.667c0,4.71,3.814,8.533,8.533,8.533h324.267
			c4.719,0,8.533-3.823,8.533-8.533c0-24.721,17.946-42.667,42.667-42.667c4.719,0,8.533-3.823,8.533-8.533V196.267
			C477.867,191.556,474.052,187.733,469.333,187.733z M460.809,307.755c-26.94,3.533-47.113,23.706-50.654,50.654H101.854
			C98.313,331.46,78.14,311.287,51.2,307.746V204.254c26.94-3.541,47.113-23.714,50.654-50.654h308.301
			c3.533,26.94,23.706,47.113,50.654,50.654V307.755z"/>
	</g>
</g>
<g>
	<g>
		<path d="M256,170.667c-47.053,0-85.333,38.281-85.333,85.333s38.281,85.333,85.333,85.333s85.333-38.281,85.333-85.333
			S303.053,170.667,256,170.667z M256,324.267c-37.641,0-68.267-30.626-68.267-68.267s30.626-68.267,68.267-68.267
			c37.641,0,68.267,30.626,68.267,68.267C324.267,293.64,293.641,324.267,256,324.267z"/>
	</g>
</g>
<g>
	<g>
		<path d="M257.613,247.62c-0.213-0.043-0.418,0.034-0.631,0.009c-0.213-0.026-0.401-0.145-0.623-0.154
			c-10.522-0.444-15.966-4.497-15.915-8.286c0.06-3.567,4.941-8.653,15.625-8.789c14.643,0.017,17.809,3.994,18.85,5.299
			c1.681,2.133,4.173,3.234,6.69,3.234c1.86,0,3.721-0.606,5.299-1.852c3.695-2.927,4.309-8.294,1.374-11.989
			c-5.12-6.451-12.817-10.086-23.748-11.281v-0.478c0-4.71-3.814-8.533-8.533-8.533s-8.533,3.823-8.533,8.533v0.913
			c-15.607,3.081-23.927,13.961-24.081,24.687c-0.179,11.827,9.429,24.107,31.061,25.455c14.421,2.773,18.91,7.91,18.748,9.822
			c-0.222,2.543-6.195,7.177-17.314,7.39c-13.022-0.008-15.36-1.835-19.362-5.948c-3.294-3.379-8.695-3.456-12.066-0.171
			c-3.371,3.285-3.447,8.687-0.171,12.066c6.639,6.827,12.791,9.813,23.185,10.743v0.375c0,4.71,3.814,8.533,8.533,8.533
			s8.533-3.823,8.533-8.533v-0.87c14.515-2.577,24.713-10.982,25.668-22.118C290.637,270.652,289.562,253.747,257.613,247.62z"/>
	</g>
</g>
</svg>